<?xml version="1.0" encoding="UTF-8"?>
<svg xmlns="http://www.w3.org/2000/svg" version="1.1" width="512px" height="512px"
  style="shape-rendering:geometricPrecision; text-rendering:geometricPrecision; image-rendering:optimizeQuality; fill-rule:evenodd; clip-rule:evenodd"
  xmlns:xlink="http://www.w3.org/1999/xlink">
  <g>
    <path style="opacity:0.985" fill="#fe724c"
      d="M 73.5,23.5 C 91.4417,22.7571 107.108,28.2571 120.5,40C 164.167,83.6667 207.833,127.333 251.5,171C 254.167,173 256.833,173 259.5,171C 303.5,127 347.5,83 391.5,39C 406.021,25.9408 423.021,20.9408 442.5,24C 470.37,31.3825 485.37,49.5492 487.5,78.5C 486.834,95.0115 481.001,109.345 470,121.5C 426.667,164.833 383.333,208.167 340,251.5C 338,254.167 338,256.833 340,259.5C 384,303.5 428,347.5 472,391.5C 485.059,406.021 490.059,423.021 487,442.5C 479.617,470.37 461.451,485.37 432.5,487.5C 416.392,487.19 402.392,481.69 390.5,471C 346.833,427.333 303.167,383.667 259.5,340C 256.833,338 254.167,338 251.5,340C 207.167,384.333 162.833,428.667 118.5,473C 104.088,485.355 87.4216,490.022 68.5,487C 40.6305,479.617 25.6305,461.451 23.5,432.5C 24.166,415.988 29.9994,401.655 41,389.5C 84.3333,346.167 127.667,302.833 171,259.5C 173,256.833 173,254.167 171,251.5C 127,207.5 83,163.5 39,119.5C 22.179,99.6576 18.8456,77.6576 29,53.5C 38.8756,36.121 53.7089,26.121 73.5,23.5 Z" />
  </g>
</svg>