<?xml version="1.0" encoding="UTF-8"?>
<svg xmlns="http://www.w3.org/2000/svg" version="1.1" width="512px" height="512px"
  style="shape-rendering:geometricPrecision; text-rendering:geometricPrecision; image-rendering:optimizeQuality; fill-rule:evenodd; clip-rule:evenodd"
  xmlns:xlink="http://www.w3.org/1999/xlink">
  <g>
    <path style="opacity:0.964" fill="#fe724c"
      d="M 234.5,31.5 C 319.59,26.8054 387.757,58.1387 439,125.5C 484.783,195.228 492.117,268.895 461,346.5C 423.571,423.895 362.071,468.061 276.5,479C 191.387,484.184 123.221,453.017 72,385.5C 26.2162,315.77 18.8829,242.103 50,164.5C 87.5875,87.0902 149.088,42.7568 234.5,31.5 Z M 252.5,63.5 C 334.239,66.2574 393.406,103.924 430,176.5C 450.866,226.428 451.866,276.761 433,327.5C 405.962,388.867 359.795,427.367 294.5,443C 213.057,456.196 147.557,430.03 98,364.5C 62.7215,310.611 55.0548,252.944 75,191.5C 99.7959,127.037 145.629,86.2034 212.5,69C 225.849,66.1665 239.182,64.3332 252.5,63.5 Z" />
  </g>
  <g>
    <path style="opacity:0.992" fill="#fe724c"
      d="M 153.5,239.5 C 221.501,239.333 289.501,239.5 357.5,240C 366.482,244.473 369.649,251.64 367,261.5C 365.167,266 362,269.167 357.5,271C 289.5,271.667 221.5,271.667 153.5,271C 146.513,268.193 143.18,263.027 143.5,255.5C 143.302,247.885 146.635,242.551 153.5,239.5 Z" />
  </g>
</svg>