<?xml version="1.0" encoding="UTF-8"?>
<svg xmlns="http://www.w3.org/2000/svg" version="1.1" width="512px" height="538px"
  style="shape-rendering:geometricPrecision; text-rendering:geometricPrecision; image-rendering:optimizeQuality; fill-rule:evenodd; clip-rule:evenodd"
  xmlns:xlink="http://www.w3.org/1999/xlink">
  <g>
    <path style="opacity:0.989" fill="#9a9ca3"
      d="M 214.5,73.5 C 278.816,70.2561 331.316,93.2561 372,142.5C 410.77,196.221 419.437,254.554 398,317.5C 391.136,334.903 381.97,350.903 370.5,365.5C 405.486,400.986 440.653,436.32 476,471.5C 480.933,480.37 480.6,489.037 475,497.5C 466.765,504.341 457.931,505.174 448.5,500C 413,464.5 377.5,429 342,393.5C 297.409,428.091 247.243,439.925 191.5,429C 123.39,411.556 78.5563,369.389 57,302.5C 41.0477,238.989 54.0477,182.323 96,132.5C 128.106,98.0304 167.606,78.3637 214.5,73.5 Z M 221.5,112.5 C 283.238,112.268 328.405,139.268 357,193.5C 379.995,249.54 372.328,300.874 334,347.5C 292.98,389.167 244.146,402.334 187.5,387C 129.523,365.587 97.0235,324.087 90,262.5C 88.999,199.303 116.499,153.469 172.5,125C 188.296,118.214 204.63,114.047 221.5,112.5 Z" />
  </g>
</svg>